<svg xmlns="http://www.w3.org/2000/svg" xmlns:xlink="http://www.w3.org/1999/xlink" width="500" zoomAndPan="magnify" viewBox="0 0 375 374.999991" height="500" preserveAspectRatio="xMidYMid meet" version="1.0"><defs><clipPath id="24575777af"><path d="M 15.5625 250 L 34 250 L 34 282 L 15.5625 282 Z M 15.5625 250 " clip-rule="nonzero"/></clipPath><clipPath id="879a987eb1"><path d="M 92 261 L 113 261 L 113 292.898438 L 92 292.898438 Z M 92 261 " clip-rule="nonzero"/></clipPath><clipPath id="9180fe2c8a"><path d="M 110 82.148438 L 262 82.148438 L 262 234 L 110 234 Z M 110 82.148438 " clip-rule="nonzero"/></clipPath></defs><rect x="-37.5" width="450" fill="#ffffff" y="-37.499999" height="449.999989" fill-opacity="1"/><rect x="-37.5" width="450" fill="#ffffff" y="-37.499999" height="449.999989" fill-opacity="1"/><g clip-path="url(#24575777af)"><path fill="#005a2f" d="M 15.878906 273.683594 L 16.035156 273.511719 L 16.964844 273.511719 L 17.125 273.683594 C 17.125 274.777344 17.210938 275.867188 17.382812 276.949219 C 17.589844 277.476562 17.929688 277.898438 18.402344 278.207031 C 19.097656 278.691406 19.851562 279.050781 20.667969 279.285156 C 21.621094 279.554688 22.59375 279.691406 23.589844 279.691406 C 24.863281 279.710938 26.074219 279.441406 27.222656 278.886719 C 28.300781 278.34375 29.136719 277.542969 29.734375 276.496094 C 30.347656 275.390625 30.644531 274.207031 30.628906 272.945312 C 30.648438 272.113281 30.503906 271.3125 30.1875 270.542969 C 29.933594 269.886719 29.535156 269.339844 28.988281 268.898438 C 28.464844 268.480469 27.878906 268.175781 27.234375 267.992188 C 26.257812 267.714844 25.269531 267.492188 24.265625 267.324219 C 23 267.105469 22.003906 266.902344 21.277344 266.722656 C 20.53125 266.527344 19.820312 266.246094 19.136719 265.882812 C 18.445312 265.527344 17.847656 265.050781 17.351562 264.453125 C 16.84375 263.8125 16.464844 263.101562 16.21875 262.324219 C 15.925781 261.441406 15.78125 260.539062 15.789062 259.613281 C 15.746094 258.421875 15.9375 257.269531 16.367188 256.160156 C 16.800781 255.050781 17.433594 254.070312 18.265625 253.21875 C 19.160156 252.359375 20.183594 251.710938 21.34375 251.277344 C 22.5 250.839844 23.699219 250.652344 24.9375 250.714844 C 26.15625 250.730469 27.359375 250.882812 28.546875 251.167969 C 29.796875 251.441406 30.980469 251.882812 32.101562 252.492188 L 32.238281 252.742188 C 31.910156 254.554688 31.734375 256.378906 31.71875 258.21875 L 31.558594 258.390625 L 30.5625 258.390625 L 30.402344 258.242188 C 30.402344 256.5625 30.402344 255.519531 30.289062 255.078125 C 30.179688 254.636719 29.667969 254.113281 28.558594 253.46875 C 27.441406 252.824219 26.238281 252.507812 24.945312 252.515625 C 23.878906 252.507812 22.867188 252.746094 21.914062 253.230469 C 20.929688 253.730469 20.222656 254.484375 19.785156 255.496094 C 19.300781 256.476562 19.054688 257.511719 19.046875 258.605469 C 19.03125 259.367188 19.179688 260.097656 19.488281 260.792969 C 19.746094 261.382812 20.125 261.882812 20.621094 262.289062 C 21.109375 262.675781 21.652344 262.953125 22.253906 263.117188 C 23.371094 263.402344 24.503906 263.625 25.648438 263.785156 C 27.34375 263.988281 28.980469 264.414062 30.5625 265.054688 C 31.632812 265.578125 32.453125 266.359375 33.03125 267.402344 C 33.683594 268.617188 33.988281 269.914062 33.949219 271.289062 C 33.976562 272.710938 33.703125 274.070312 33.121094 275.367188 C 32.542969 276.664062 31.71875 277.777344 30.640625 278.707031 C 29.546875 279.695312 28.304688 280.445312 26.921875 280.960938 C 25.539062 281.476562 24.113281 281.71875 22.636719 281.6875 C 20.199219 281.722656 17.890625 281.191406 15.707031 280.101562 L 15.59375 279.816406 C 15.71875 278.941406 15.820312 276.902344 15.878906 273.683594 Z M 15.878906 273.683594 " fill-opacity="1" fill-rule="nonzero"/></g><path fill="#005a2f" d="M 41.375 249.941406 L 41.75 250.191406 C 41.597656 251.800781 41.527344 255.015625 41.535156 259.828125 L 41.535156 264.988281 C 42.597656 264.035156 43.59375 263.070312 44.511719 262.128906 C 44.734375 261.894531 44.988281 261.699219 45.269531 261.539062 C 45.632812 261.371094 46.011719 261.238281 46.402344 261.144531 C 46.953125 261.003906 47.511719 260.9375 48.078125 260.941406 C 49.0625 260.941406 50 261.15625 50.886719 261.585938 C 51.695312 261.925781 52.386719 262.425781 52.957031 263.09375 C 53.445312 263.71875 53.765625 264.421875 53.921875 265.203125 C 54.121094 266.1875 54.210938 267.179688 54.191406 268.183594 L 54.191406 271.859375 C 54.191406 272.09375 54.191406 273.839844 54.28125 277.0625 C 54.207031 277.886719 54.347656 278.671875 54.703125 279.417969 C 54.929688 279.679688 55.722656 279.804688 57.058594 279.804688 L 57.203125 279.964844 L 57.203125 280.871094 L 57.058594 281.03125 C 55.4375 280.925781 54.339844 280.871094 53.773438 280.871094 C 53.480469 280.871094 52.550781 280.925781 50.988281 281.03125 L 50.75 280.800781 C 50.925781 278.988281 51.007812 276.625 51 273.71875 L 51 270.984375 C 51 269.339844 51 268.160156 50.898438 267.4375 C 50.835938 266.726562 50.625 266.066406 50.261719 265.453125 C 49.90625 264.871094 49.429688 264.414062 48.835938 264.078125 C 48.164062 263.730469 47.445312 263.566406 46.6875 263.59375 C 45.9375 263.566406 45.214844 263.695312 44.523438 263.976562 C 43.855469 264.300781 43.269531 264.734375 42.769531 265.28125 C 42.289062 265.710938 41.929688 266.226562 41.691406 266.824219 C 41.535156 267.605469 41.476562 268.394531 41.511719 269.191406 L 41.511719 272.902344 C 41.511719 273.207031 41.511719 274.191406 41.589844 275.859375 C 41.59375 276.832031 41.644531 277.804688 41.75 278.773438 C 41.78125 279 41.867188 279.203125 42.007812 279.386719 C 42.121094 279.511719 42.261719 279.59375 42.429688 279.625 C 42.585938 279.625 43.277344 279.714844 44.488281 279.804688 L 44.660156 279.964844 L 44.660156 280.835938 L 44.511719 281.03125 C 42.914062 280.925781 41.386719 280.871094 39.902344 280.871094 C 38.421875 280.871094 36.914062 280.925781 35.375 281.03125 L 35.203125 280.835938 L 35.203125 279.964844 L 35.375 279.804688 C 36.621094 279.714844 37.3125 279.65625 37.46875 279.613281 C 37.636719 279.570312 37.777344 279.480469 37.886719 279.351562 C 38.035156 279.179688 38.121094 278.976562 38.136719 278.75 C 38.136719 278.476562 38.238281 277.617188 38.296875 276.050781 C 38.351562 274.488281 38.375 273.367188 38.375 272.59375 L 38.375 261.777344 L 38.238281 257.34375 C 38.238281 255.792969 38.160156 254.726562 38.113281 254.125 C 38.117188 253.757812 38.058594 253.40625 37.933594 253.058594 C 37.828125 252.929688 37.691406 252.847656 37.527344 252.8125 C 36.773438 252.730469 36.019531 252.703125 35.261719 252.730469 L 35.089844 252.539062 L 35.089844 251.65625 L 35.25 251.472656 C 37.363281 251.25 39.40625 250.742188 41.375 249.941406 Z M 41.375 249.941406 " fill-opacity="1" fill-rule="nonzero"/><path fill="#005a2f" d="M 64.972656 260.960938 L 65.320312 261.234375 C 65.253906 262.039062 65.199219 263.5 65.164062 265.53125 L 66.542969 263.546875 C 66.921875 263.007812 67.335938 262.503906 67.789062 262.027344 C 68.164062 261.671875 68.589844 261.402344 69.070312 261.210938 C 69.542969 261.011719 70.039062 260.914062 70.554688 260.917969 C 71.132812 260.898438 71.683594 261.019531 72.207031 261.28125 L 72.339844 261.574219 C 72.136719 263.421875 72.023438 265.054688 71.992188 266.460938 L 71.074219 266.460938 C 71.003906 266.1875 70.890625 265.933594 70.734375 265.695312 C 70.582031 265.460938 70.394531 265.253906 70.171875 265.082031 C 69.949219 264.90625 69.703125 264.773438 69.4375 264.679688 C 69.171875 264.585938 68.898438 264.535156 68.617188 264.535156 C 67.816406 264.523438 67.128906 264.796875 66.554688 265.359375 C 65.96875 265.9375 65.589844 266.628906 65.425781 267.4375 C 65.199219 268.46875 65.097656 269.515625 65.117188 270.578125 L 65.117188 272.84375 C 65.117188 273.261719 65.117188 274.296875 65.199219 275.917969 C 65.199219 276.859375 65.257812 277.800781 65.367188 278.738281 C 65.398438 278.949219 65.484375 279.136719 65.628906 279.292969 C 65.761719 279.425781 65.917969 279.503906 66.101562 279.53125 C 66.308594 279.53125 67.234375 279.644531 68.820312 279.75 L 68.992188 279.90625 L 68.992188 280.78125 L 68.820312 280.972656 C 67.132812 280.871094 65.425781 280.8125 63.523438 280.8125 C 62.050781 280.8125 60.53125 280.871094 58.992188 280.972656 L 58.8125 280.78125 L 58.8125 279.90625 L 58.992188 279.75 C 60.214844 279.65625 60.917969 279.601562 61.074219 279.554688 C 61.242188 279.511719 61.382812 279.421875 61.496094 279.292969 C 61.632812 279.117188 61.714844 278.917969 61.742188 278.695312 C 61.742188 278.421875 61.835938 277.558594 61.890625 275.996094 C 61.949219 274.429688 61.980469 273.308594 61.980469 272.539062 L 61.980469 268.421875 C 61.980469 267.867188 61.980469 267.105469 61.902344 266.15625 C 61.824219 265.203125 61.8125 264.601562 61.777344 264.375 C 61.757812 264.164062 61.660156 264 61.484375 263.886719 C 61.164062 263.753906 60.832031 263.699219 60.488281 263.730469 L 58.890625 263.730469 L 58.722656 263.570312 L 58.722656 262.664062 L 58.867188 262.503906 C 60.972656 262.261719 63.003906 261.75 64.972656 260.960938 Z M 64.972656 260.960938 " fill-opacity="1" fill-rule="nonzero"/><path fill="#005a2f" d="M 89.960938 277.796875 L 89.347656 279.292969 C 88.269531 280.109375 87.082031 280.71875 85.792969 281.121094 C 84.882812 281.378906 83.953125 281.515625 83.007812 281.539062 C 81.484375 281.546875 80.039062 281.214844 78.671875 280.554688 C 77.195312 279.8125 76.082031 278.703125 75.332031 277.230469 C 74.410156 275.453125 73.984375 273.5625 74.050781 271.5625 C 74.03125 270.214844 74.195312 268.894531 74.550781 267.59375 C 74.765625 266.671875 75.109375 265.796875 75.578125 264.976562 C 76.089844 264.246094 76.703125 263.609375 77.414062 263.070312 C 78.261719 262.394531 79.183594 261.835938 80.175781 261.40625 C 81.175781 260.972656 82.214844 260.761719 83.300781 260.769531 C 84.765625 260.726562 86.113281 261.101562 87.34375 261.902344 C 88.480469 262.648438 89.292969 263.652344 89.789062 264.917969 C 90.261719 266.175781 90.496094 267.476562 90.492188 268.820312 C 90.492188 269.261719 90.492188 269.667969 90.492188 270.078125 L 90.289062 270.304688 C 89.132812 270.554688 87.96875 270.691406 86.789062 270.722656 C 85.328125 270.804688 84.367188 270.824219 83.890625 270.824219 L 77.71875 270.824219 C 77.71875 273.71875 78.378906 275.84375 79.699219 277.199219 C 80.3125 277.867188 81.035156 278.378906 81.871094 278.738281 C 82.703125 279.097656 83.574219 279.265625 84.480469 279.25 C 85.363281 279.25 86.21875 279.082031 87.039062 278.75 C 87.953125 278.367188 88.820312 277.898438 89.640625 277.34375 Z M 77.71875 269.214844 C 77.945312 269.214844 78.851562 269.304688 80.359375 269.363281 C 81.863281 269.421875 83.03125 269.441406 83.753906 269.441406 C 84.832031 269.472656 85.90625 269.4375 86.980469 269.339844 C 86.980469 269.011719 86.980469 268.75 86.980469 268.570312 C 87.101562 266.847656 86.707031 265.25 85.792969 263.785156 C 85.410156 263.269531 84.925781 262.871094 84.34375 262.589844 C 83.765625 262.3125 83.152344 262.183594 82.507812 262.210938 C 81.8125 262.1875 81.148438 262.335938 80.527344 262.648438 C 79.902344 262.964844 79.394531 263.414062 79 263.988281 C 78.027344 265.597656 77.601562 267.339844 77.71875 269.214844 Z M 77.71875 269.214844 " fill-opacity="1" fill-rule="nonzero"/><g clip-path="url(#879a987eb1)"><path fill="#005a2f" d="M 92.664062 292.21875 C 93.058594 291.164062 93.386719 290.085938 93.640625 288.988281 L 94.089844 288.988281 C 94.585938 289.695312 95.261719 290.070312 96.117188 290.121094 C 96.609375 290.097656 97.066406 289.957031 97.484375 289.695312 C 97.902344 289.4375 98.234375 289.089844 98.472656 288.660156 C 99.628906 286.578125 100.574219 284.40625 101.304688 282.140625 C 100.828125 280.644531 100.332031 279.25 99.84375 277.921875 L 96.808594 269.691406 C 96.480469 268.839844 96.015625 267.628906 95.394531 266.054688 C 95.074219 265.15625 94.695312 264.28125 94.261719 263.433594 C 94.128906 263.261719 93.972656 263.109375 93.796875 262.980469 C 93.308594 262.757812 92.792969 262.625 92.257812 262.582031 L 92.097656 262.425781 L 92.097656 261.585938 L 92.269531 261.414062 C 93.730469 261.519531 95.234375 261.5625 96.796875 261.5625 C 98.597656 261.5625 100 261.5625 100.976562 261.414062 L 101.132812 261.585938 L 101.132812 262.414062 L 101 262.570312 L 99.867188 262.675781 C 99.429688 262.652344 99.03125 262.761719 98.664062 263.003906 C 98.503906 263.167969 98.417969 263.371094 98.417969 263.605469 C 98.554688 264.375 98.753906 265.132812 99.015625 265.871094 C 99.414062 267.175781 99.796875 268.332031 100.148438 269.328125 L 101.304688 272.617188 C 102.097656 274.761719 102.707031 276.335938 103.136719 277.355469 L 104.144531 274.917969 C 104.507812 274.023438 105.019531 272.652344 105.675781 270.859375 L 107.257812 266.425781 C 107.667969 265.292969 107.90625 264.578125 107.960938 264.296875 C 108.007812 264.097656 108.039062 263.898438 108.050781 263.695312 C 108.085938 263.414062 107.980469 263.207031 107.734375 263.070312 C 107.300781 262.898438 106.851562 262.800781 106.386719 262.777344 L 105.582031 262.652344 L 105.449219 262.480469 L 105.449219 261.5625 L 105.605469 261.394531 C 106.671875 261.496094 107.9375 261.539062 109.398438 261.539062 C 110.46875 261.554688 111.539062 261.507812 112.605469 261.394531 L 112.761719 261.5625 L 112.761719 262.480469 L 112.605469 262.652344 C 112.210938 262.644531 111.835938 262.714844 111.472656 262.855469 C 111.160156 263.027344 110.902344 263.257812 110.703125 263.546875 C 110.167969 264.410156 109.710938 265.3125 109.332031 266.257812 C 108.675781 267.742188 108.007812 269.273438 107.351562 270.859375 L 105.46875 275.394531 L 101.066406 286.730469 C 100.679688 287.695312 100.207031 288.75 99.640625 289.859375 C 99.175781 290.863281 98.488281 291.667969 97.566406 292.277344 C 96.765625 292.765625 95.890625 293.007812 94.953125 293.011719 C 94.109375 292.980469 93.347656 292.714844 92.664062 292.21875 Z M 92.664062 292.21875 " fill-opacity="1" fill-rule="nonzero"/></g><path fill="#005a2f" d="M 116.542969 266.699219 L 115.796875 266.496094 L 115.648438 266.28125 L 115.648438 263.695312 C 116.558594 262.867188 117.578125 262.214844 118.710938 261.742188 C 119.84375 261.269531 121.023438 261.003906 122.25 260.941406 C 123.550781 260.886719 124.765625 261.1875 125.894531 261.835938 C 126.816406 262.382812 127.515625 263.140625 127.992188 264.101562 C 128.445312 265.101562 128.660156 266.148438 128.636719 267.242188 L 128.546875 271.484375 L 128.546875 277.707031 C 128.5 278.234375 128.554688 278.746094 128.714844 279.25 C 128.792969 279.410156 128.914062 279.53125 129.078125 279.613281 C 129.328125 279.707031 129.589844 279.757812 129.859375 279.769531 L 130.992188 279.871094 L 131.148438 280.066406 L 131.148438 280.894531 L 130.992188 281.0625 C 130.0625 280.984375 129.203125 280.949219 128.398438 280.949219 C 127.59375 280.949219 126.710938 280.949219 125.648438 281.0625 L 125.363281 280.78125 L 125.441406 277.378906 L 121.277344 280.925781 C 120.554688 281.253906 119.800781 281.414062 119.011719 281.414062 C 118.074219 281.4375 117.191406 281.226562 116.363281 280.78125 C 115.632812 280.382812 115.070312 279.820312 114.675781 279.089844 C 114.273438 278.261719 114.085938 277.382812 114.109375 276.460938 C 114.054688 275.574219 114.179688 274.714844 114.484375 273.878906 C 114.792969 273.042969 115.25 272.304688 115.863281 271.664062 C 116.996094 270.53125 120.222656 269.535156 125.441406 268.726562 C 125.441406 266.664062 125.023438 265.214844 124.1875 264.375 C 123.730469 263.941406 123.207031 263.613281 122.617188 263.390625 C 122.027344 263.171875 121.417969 263.074219 120.789062 263.105469 C 120.097656 263.097656 119.429688 263.21875 118.785156 263.46875 C 118.386719 263.566406 118.042969 263.753906 117.742188 264.035156 C 117.640625 264.183594 117.300781 265.03125 116.703125 266.597656 Z M 125.421875 270 C 121.851562 270.65625 119.628906 271.359375 118.75 272.105469 C 118.285156 272.5625 117.933594 273.09375 117.707031 273.707031 C 117.476562 274.316406 117.386719 274.949219 117.4375 275.597656 C 117.4375 277.777344 118.421875 278.863281 120.40625 278.863281 C 122.09375 278.863281 123.765625 277.789062 125.421875 275.644531 Z M 125.421875 270 " fill-opacity="1" fill-rule="nonzero"/><path fill="#005a2f" d="M 133.96875 274.726562 L 134.785156 274.726562 L 134.953125 274.917969 C 134.96875 275.921875 135.03125 276.925781 135.144531 277.921875 C 135.65625 278.675781 136.339844 279.210938 137.195312 279.523438 C 138.105469 279.921875 139.054688 280.125 140.046875 280.132812 C 141.289062 280.210938 142.367188 279.835938 143.285156 279 C 143.679688 278.632812 143.980469 278.207031 144.191406 277.710938 C 144.402344 277.21875 144.503906 276.703125 144.5 276.164062 C 144.511719 275.597656 144.367188 275.078125 144.058594 274.601562 C 143.714844 274.121094 143.273438 273.761719 142.730469 273.523438 C 141.707031 273.089844 140.648438 272.75 139.5625 272.503906 C 138.25 272.164062 137.296875 271.914062 136.808594 271.722656 C 136.246094 271.503906 135.742188 271.1875 135.304688 270.769531 C 134.796875 270.3125 134.417969 269.761719 134.171875 269.125 C 133.90625 268.4375 133.777344 267.722656 133.789062 266.980469 C 133.757812 266.117188 133.921875 265.289062 134.28125 264.503906 C 134.640625 263.714844 135.152344 263.050781 135.824219 262.503906 C 136.542969 261.929688 137.335938 261.5 138.207031 261.210938 C 139.078125 260.921875 139.96875 260.792969 140.886719 260.828125 C 141.832031 260.835938 142.761719 260.964844 143.671875 261.210938 C 144.445312 261.402344 145.199219 261.648438 145.9375 261.949219 L 146.105469 262.242188 C 145.953125 263.703125 145.890625 265.164062 145.914062 266.632812 L 145.742188 266.824219 L 144.972656 266.824219 L 144.804688 266.632812 C 144.785156 266.03125 144.714844 265.4375 144.601562 264.851562 C 144.464844 264.417969 144.234375 264.039062 143.910156 263.71875 C 143.460938 263.269531 142.941406 262.929688 142.347656 262.707031 C 141.660156 262.4375 140.945312 262.304688 140.207031 262.3125 C 139.527344 262.289062 138.875 262.414062 138.25 262.683594 C 137.710938 262.933594 137.289062 263.3125 136.980469 263.820312 C 136.628906 264.386719 136.464844 265 136.480469 265.667969 C 136.476562 266.164062 136.574219 266.640625 136.777344 267.097656 C 136.988281 267.515625 137.289062 267.851562 137.683594 268.105469 C 138.078125 268.359375 138.503906 268.542969 138.960938 268.660156 L 141.046875 269.25 C 142.351562 269.558594 143.628906 269.964844 144.871094 270.472656 C 145.636719 270.808594 146.230469 271.335938 146.660156 272.050781 C 147.105469 272.847656 147.3125 273.699219 147.285156 274.613281 C 147.289062 275.554688 147.105469 276.460938 146.726562 277.324219 C 146.347656 278.1875 145.808594 278.933594 145.109375 279.566406 C 144.351562 280.269531 143.488281 280.796875 142.519531 281.15625 C 141.546875 281.511719 140.546875 281.671875 139.515625 281.628906 C 138.515625 281.609375 137.523438 281.511719 136.539062 281.335938 C 135.511719 281.179688 134.496094 280.964844 133.492188 280.6875 L 133.390625 280.417969 L 133.582031 279.023438 C 133.648438 278.589844 133.6875 278.15625 133.695312 277.71875 C 133.695312 277.277344 133.695312 276.359375 133.695312 274.953125 Z M 133.96875 274.726562 " fill-opacity="1" fill-rule="nonzero"/><path fill="#005a2f" d="M 166.699219 266.789062 L 166.699219 275.101562 C 166.699219 276.621094 166.757812 277.617188 166.8125 278.117188 C 166.835938 278.457031 166.929688 278.78125 167.097656 279.078125 C 167.289062 279.273438 167.519531 279.398438 167.789062 279.453125 C 168.628906 279.613281 169.480469 279.695312 170.335938 279.691406 L 170.484375 279.816406 L 170.484375 280.871094 L 170.335938 281.03125 C 167.097656 280.925781 165.273438 280.871094 164.855469 280.871094 C 164.4375 280.871094 162.589844 280.925781 159.398438 281.03125 L 159.238281 280.871094 L 159.238281 279.816406 L 159.398438 279.691406 C 160.195312 279.675781 160.988281 279.609375 161.777344 279.488281 C 162.066406 279.449219 162.328125 279.339844 162.558594 279.160156 C 162.738281 278.90625 162.84375 278.628906 162.875 278.320312 C 162.996094 277.375 163.042969 276.425781 163.019531 275.472656 L 163.019531 257.277344 C 163.019531 255.691406 163.019531 254.671875 162.917969 254.207031 C 162.90625 253.875 162.816406 253.570312 162.648438 253.285156 C 162.457031 253.089844 162.226562 252.964844 161.957031 252.914062 C 161.117188 252.757812 160.273438 252.683594 159.421875 252.6875 L 159.261719 252.539062 L 159.261719 251.496094 L 159.421875 251.347656 C 164.808594 251.421875 167.957031 251.464844 168.863281 251.472656 C 171.882812 251.472656 174.988281 251.429688 178.183594 251.347656 L 178.328125 251.496094 C 178.113281 252.273438 177.984375 253.0625 177.933594 253.863281 C 177.863281 254.75 177.796875 255.996094 177.71875 257.617188 L 177.570312 257.777344 L 176.675781 257.777344 L 176.539062 257.617188 C 176.539062 257.515625 176.460938 256.984375 176.359375 256.007812 C 176.308594 255.292969 176.210938 254.589844 176.066406 253.886719 C 174.277344 253.339844 172.453125 253.097656 170.585938 253.164062 C 169.359375 253.179688 168.140625 253.261719 166.925781 253.410156 C 166.78125 254.546875 166.710938 257.140625 166.710938 261.347656 L 166.710938 264.953125 C 168.320312 264.953125 169.417969 264.953125 170.007812 264.953125 C 170.941406 264.960938 171.875 264.914062 172.804688 264.816406 C 173.273438 264.789062 173.734375 264.699219 174.183594 264.554688 C 174.371094 264.449219 174.492188 264.289062 174.546875 264.082031 C 174.671875 263.585938 174.75 263.082031 174.785156 262.570312 L 174.898438 261.4375 L 175.035156 261.28125 L 176.007812 261.28125 L 176.15625 261.460938 L 176.019531 265.996094 C 176.019531 266.527344 176.019531 267.289062 176.019531 268.261719 C 176.019531 269.238281 176.097656 270.292969 176.097656 270.917969 L 175.929688 271.085938 L 174.976562 271.085938 L 174.84375 270.917969 L 174.761719 269.148438 C 174.75 268.632812 174.6875 268.121094 174.570312 267.617188 C 174.519531 267.339844 174.375 267.132812 174.128906 266.992188 C 173.691406 266.839844 173.242188 266.75 172.78125 266.722656 C 171.703125 266.625 170.625 266.582031 169.542969 266.597656 C 168.296875 266.679688 167.351562 266.746094 166.699219 266.789062 Z M 166.699219 266.789062 " fill-opacity="1" fill-rule="nonzero"/><path fill="#005a2f" d="M 181.410156 271.300781 C 181.40625 269.640625 181.71875 268.042969 182.347656 266.507812 C 182.714844 265.652344 183.199219 264.867188 183.796875 264.15625 C 184.398438 263.445312 185.085938 262.839844 185.867188 262.335938 C 186.648438 261.828125 187.484375 261.449219 188.378906 261.195312 C 189.273438 260.941406 190.183594 260.820312 191.113281 260.835938 C 192.347656 260.792969 193.539062 261.015625 194.679688 261.5 C 195.816406 261.984375 196.804688 262.683594 197.632812 263.605469 C 198.492188 264.582031 199.140625 265.6875 199.574219 266.914062 C 200.011719 268.144531 200.207031 269.410156 200.160156 270.710938 C 200.21875 272.175781 200 273.59375 199.5 274.964844 C 199 276.339844 198.257812 277.570312 197.269531 278.648438 C 196.382812 279.644531 195.332031 280.410156 194.113281 280.953125 C 192.894531 281.492188 191.617188 281.753906 190.285156 281.742188 C 188.515625 281.761719 186.925781 281.234375 185.519531 280.15625 C 184.140625 279.148438 183.105469 277.867188 182.417969 276.300781 C 181.722656 274.707031 181.386719 273.039062 181.410156 271.300781 Z M 185.019531 269.863281 C 184.996094 271.636719 185.222656 273.378906 185.710938 275.089844 C 186.09375 276.527344 186.816406 277.761719 187.886719 278.796875 C 188.824219 279.730469 189.957031 280.195312 191.28125 280.191406 C 192.023438 280.191406 192.722656 280.023438 193.382812 279.679688 C 194.039062 279.335938 194.582031 278.859375 195.007812 278.25 C 196.128906 276.449219 196.617188 274.488281 196.46875 272.367188 C 196.570312 269.796875 196.042969 267.363281 194.882812 265.066406 C 194.671875 264.636719 194.410156 264.242188 194.085938 263.886719 C 193.765625 263.53125 193.402344 263.230469 192.996094 262.980469 C 192.589844 262.726562 192.15625 262.539062 191.695312 262.410156 C 191.234375 262.285156 190.761719 262.226562 190.285156 262.230469 C 189.515625 262.207031 188.785156 262.371094 188.097656 262.71875 C 187.410156 263.066406 186.851562 263.558594 186.414062 264.195312 C 185.355469 265.9375 184.890625 267.828125 185.019531 269.863281 Z M 185.019531 269.863281 " fill-opacity="1" fill-rule="nonzero"/><path fill="#005a2f" d="M 208.074219 260.960938 L 208.433594 261.234375 C 208.289062 263.046875 208.21875 265.371094 208.21875 268.183594 L 208.21875 273.046875 C 208.15625 274.304688 208.28125 275.546875 208.59375 276.765625 C 208.824219 277.460938 209.253906 277.992188 209.882812 278.363281 C 210.554688 278.757812 211.28125 278.941406 212.058594 278.921875 C 212.945312 278.9375 213.78125 278.746094 214.570312 278.347656 C 215.363281 277.945312 216.011719 277.378906 216.519531 276.652344 C 216.871094 276.203125 217.164062 275.722656 217.402344 275.203125 C 217.515625 274.5 217.566406 273.792969 217.550781 273.082031 L 217.550781 268.480469 C 217.550781 267.925781 217.527344 267.171875 217.480469 266.210938 C 217.480469 265.246094 217.390625 264.660156 217.355469 264.429688 C 217.335938 264.21875 217.234375 264.054688 217.050781 263.945312 C 216.734375 263.808594 216.40625 263.757812 216.066406 263.785156 L 214.457031 263.785156 L 214.289062 263.625 L 214.289062 262.71875 L 214.445312 262.5625 C 216.5625 262.316406 218.609375 261.792969 220.582031 260.996094 L 220.945312 261.269531 C 220.808594 263.082031 220.742188 265.40625 220.742188 268.21875 L 220.742188 271.890625 C 220.742188 272.105469 220.742188 273.808594 220.84375 277.015625 C 220.816406 277.742188 220.882812 278.460938 221.035156 279.171875 C 221.121094 279.402344 221.269531 279.589844 221.476562 279.726562 C 222.039062 279.871094 222.609375 279.925781 223.1875 279.882812 L 223.71875 279.882812 L 223.890625 280.042969 L 223.890625 280.871094 L 223.742188 281.0625 C 221.941406 280.960938 220.742188 280.90625 220.128906 280.90625 C 219.347656 280.90625 218.453125 280.90625 217.4375 281.039062 L 217.265625 280.871094 C 217.339844 279.457031 217.398438 278.253906 217.4375 277.265625 C 216.460938 278.117188 215.550781 279.027344 214.695312 279.996094 C 214.21875 280.515625 213.648438 280.894531 212.988281 281.132812 C 212.175781 281.441406 211.339844 281.589844 210.472656 281.574219 C 209.292969 281.640625 208.183594 281.390625 207.144531 280.824219 C 206.34375 280.34375 205.78125 279.664062 205.457031 278.785156 C 205.046875 277.300781 204.878906 275.789062 204.957031 274.25 L 204.957031 268.523438 C 204.957031 267.96875 204.957031 267.210938 204.878906 266.257812 C 204.800781 265.304688 204.777344 264.703125 204.753906 264.476562 C 204.730469 264.269531 204.632812 264.105469 204.460938 263.988281 C 204.140625 263.855469 203.808594 263.804688 203.464844 263.832031 L 201.855469 263.832031 L 201.6875 263.671875 L 201.6875 262.765625 L 201.84375 262.605469 C 203.996094 262.339844 206.070312 261.792969 208.074219 260.960938 Z M 208.074219 260.960938 " fill-opacity="1" fill-rule="nonzero"/><path fill="#005a2f" d="M 231.554688 260.960938 L 231.917969 261.234375 C 231.839844 262.164062 231.78125 263.386719 231.757812 264.90625 C 232.777344 263.988281 233.75 263.046875 234.667969 262.105469 C 234.886719 261.871094 235.136719 261.671875 235.414062 261.519531 C 235.777344 261.34375 236.15625 261.210938 236.546875 261.121094 C 237.097656 260.984375 237.65625 260.914062 238.222656 260.917969 C 239.210938 260.917969 240.152344 261.132812 241.042969 261.5625 C 241.875 261.90625 242.582031 262.414062 243.171875 263.09375 C 243.65625 263.722656 243.976562 264.425781 244.132812 265.203125 C 244.328125 266.1875 244.414062 267.179688 244.394531 268.183594 L 244.394531 271.859375 C 244.394531 272.09375 244.394531 273.839844 244.496094 277.0625 C 244.410156 277.882812 244.542969 278.671875 244.890625 279.417969 C 245.140625 279.679688 245.921875 279.804688 247.257812 279.804688 L 247.417969 279.964844 L 247.417969 280.871094 L 247.257812 281.03125 C 245.652344 280.925781 244.554688 280.871094 243.988281 280.871094 C 243.648438 280.871094 242.71875 280.925781 241.191406 281.03125 L 240.964844 280.800781 C 241.128906 278.988281 241.210938 276.625 241.210938 273.71875 L 241.210938 270.984375 C 241.210938 269.339844 241.210938 268.160156 241.109375 267.4375 C 241.042969 266.726562 240.828125 266.066406 240.464844 265.453125 C 240.109375 264.867188 239.636719 264.410156 239.039062 264.078125 C 238.367188 263.734375 237.652344 263.570312 236.898438 263.59375 C 236.320312 263.578125 235.757812 263.652344 235.199219 263.808594 C 234.621094 264.011719 234.089844 264.3125 233.617188 264.703125 C 233.125 265.066406 232.695312 265.488281 232.324219 265.972656 C 232.066406 266.3125 231.898438 266.691406 231.816406 267.105469 C 231.738281 267.832031 231.707031 268.554688 231.726562 269.285156 L 231.726562 272.910156 C 231.726562 273.21875 231.726562 274.203125 231.804688 275.871094 C 231.808594 276.84375 231.859375 277.816406 231.960938 278.785156 C 231.996094 279.011719 232.082031 279.214844 232.222656 279.398438 C 232.335938 279.523438 232.476562 279.601562 232.640625 279.636719 C 232.8125 279.636719 233.503906 279.726562 234.703125 279.816406 L 234.871094 279.976562 L 234.871094 280.847656 L 234.726562 281.039062 C 233.140625 280.9375 231.601562 280.882812 230.117188 280.882812 C 228.632812 280.882812 227.140625 280.9375 225.589844 281.039062 L 225.417969 280.847656 L 225.417969 279.976562 L 225.589844 279.816406 C 226.820312 279.726562 227.523438 279.667969 227.671875 279.625 C 227.839844 279.582031 227.984375 279.496094 228.101562 279.363281 C 228.238281 279.183594 228.320312 278.984375 228.351562 278.761719 C 228.351562 278.488281 228.441406 277.628906 228.496094 276.0625 C 228.554688 274.5 228.589844 273.375 228.589844 272.605469 L 228.589844 268.492188 C 228.589844 267.933594 228.589844 267.175781 228.507812 266.222656 C 228.429688 265.269531 228.417969 264.667969 228.382812 264.441406 C 228.367188 264.230469 228.269531 264.070312 228.089844 263.957031 C 227.769531 263.820312 227.4375 263.769531 227.09375 263.796875 L 225.496094 263.796875 L 225.316406 263.636719 L 225.316406 262.730469 L 225.476562 262.570312 C 227.574219 262.304688 229.601562 261.769531 231.554688 260.960938 Z M 231.554688 260.960938 " fill-opacity="1" fill-rule="nonzero"/><path fill="#005a2f" d="M 260.617188 252.539062 L 260.617188 251.65625 L 260.777344 251.472656 C 262.90625 251.253906 264.964844 250.742188 266.949219 249.941406 L 267.300781 250.191406 C 267.164062 251.800781 267.09375 255.015625 267.09375 259.828125 L 267.09375 273.511719 C 267.09375 274.917969 267.09375 276.15625 267.164062 277.207031 C 267.144531 277.839844 267.222656 278.460938 267.402344 279.066406 C 267.539062 279.292969 267.726562 279.453125 267.96875 279.554688 C 268.707031 279.765625 269.460938 279.882812 270.230469 279.90625 L 270.402344 280.078125 L 270.402344 280.859375 L 270.230469 281.050781 C 268.863281 280.960938 267.785156 280.914062 267.027344 280.914062 C 266.269531 280.914062 265.363281 280.914062 264.082031 281.050781 L 263.878906 280.824219 C 263.878906 279.464844 263.878906 278.558594 263.878906 277.96875 C 263.878906 277.890625 263.878906 277.628906 263.878906 277.175781 C 263.144531 277.753906 262.441406 278.367188 261.773438 279.023438 C 260.742188 280.03125 260.0625 280.65625 259.746094 280.914062 C 258.953125 281.28125 258.117188 281.441406 257.246094 281.390625 C 255.589844 281.4375 254.101562 280.964844 252.773438 279.976562 C 251.535156 279.027344 250.660156 277.820312 250.144531 276.347656 C 249.625 274.878906 249.363281 273.367188 249.363281 271.8125 C 249.363281 270.25 249.632812 268.738281 250.179688 267.277344 C 250.589844 265.96875 251.34375 264.90625 252.445312 264.089844 C 253.441406 263.421875 254.527344 262.730469 255.714844 262.015625 C 256.777344 261.320312 257.945312 260.960938 259.214844 260.941406 C 260.875 260.949219 262.417969 261.386719 263.835938 262.253906 L 263.753906 257.59375 C 263.753906 255.972656 263.6875 254.851562 263.628906 254.195312 C 263.628906 253.804688 263.570312 253.429688 263.449219 253.058594 C 263.355469 252.925781 263.226562 252.835938 263.066406 252.800781 C 262.289062 252.71875 261.511719 252.691406 260.730469 252.71875 Z M 263.890625 265.816406 C 263.167969 264.882812 262.292969 264.125 261.265625 263.546875 C 260.363281 263.042969 259.398438 262.785156 258.367188 262.777344 C 257.269531 262.777344 256.273438 263.09375 255.375 263.730469 C 254.386719 264.4375 253.722656 265.378906 253.382812 266.550781 C 252.960938 267.871094 252.757812 269.226562 252.773438 270.609375 C 252.664062 272.761719 253.230469 274.714844 254.472656 276.472656 C 254.945312 277.179688 255.558594 277.734375 256.3125 278.136719 C 257.0625 278.539062 257.863281 278.738281 258.71875 278.738281 C 259.609375 278.753906 260.433594 278.519531 261.183594 278.035156 C 261.929688 277.546875 262.519531 276.914062 262.960938 276.144531 C 263.402344 275.40625 263.675781 274.613281 263.777344 273.761719 C 263.847656 272.96875 263.890625 271.496094 263.890625 269.398438 Z M 263.890625 265.816406 " fill-opacity="1" fill-rule="nonzero"/><path fill="#005a2f" d="M 275.699219 266.699219 L 274.953125 266.496094 L 274.804688 266.28125 L 274.804688 263.695312 C 275.714844 262.867188 276.734375 262.214844 277.867188 261.742188 C 279 261.269531 280.179688 261.003906 281.40625 260.941406 C 282.707031 260.886719 283.921875 261.1875 285.050781 261.835938 C 285.972656 262.382812 286.671875 263.140625 287.148438 264.101562 C 287.609375 265.097656 287.828125 266.144531 287.804688 267.242188 L 287.714844 271.449219 L 287.714844 277.671875 C 287.664062 278.199219 287.71875 278.710938 287.871094 279.214844 C 287.953125 279.382812 288.078125 279.503906 288.246094 279.578125 C 288.496094 279.675781 288.757812 279.726562 289.027344 279.738281 L 290.160156 279.839844 L 290.316406 280.03125 L 290.316406 280.859375 L 290.160156 281.03125 C 289.21875 280.949219 288.359375 280.917969 287.554688 280.917969 C 286.75 280.917969 285.878906 280.917969 284.816406 281.03125 L 284.519531 280.746094 L 284.597656 277.34375 L 280.433594 280.894531 C 279.714844 281.222656 278.957031 281.382812 278.167969 281.382812 C 277.242188 281.40625 276.371094 281.203125 275.554688 280.769531 C 274.816406 280.378906 274.253906 279.816406 273.867188 279.078125 C 273.453125 278.25 273.261719 277.375 273.289062 276.449219 C 273.238281 275.5625 273.363281 274.703125 273.667969 273.867188 C 273.972656 273.035156 274.433594 272.296875 275.042969 271.652344 C 276.175781 270.519531 279.414062 269.523438 284.621094 268.71875 C 284.621094 266.652344 284.203125 265.203125 283.367188 264.363281 C 282.914062 263.925781 282.390625 263.59375 281.800781 263.375 C 281.207031 263.152344 280.597656 263.058594 279.96875 263.09375 C 279.273438 263.085938 278.601562 263.207031 277.953125 263.457031 C 277.554688 263.558594 277.203125 263.746094 276.898438 264.023438 C 276.820312 264.171875 276.480469 265.019531 275.882812 266.585938 Z M 284.554688 270 C 280.988281 270.65625 278.78125 271.359375 277.886719 272.105469 C 277.417969 272.5625 277.070312 273.09375 276.839844 273.707031 C 276.609375 274.316406 276.519531 274.949219 276.570312 275.597656 C 276.570312 277.777344 277.558594 278.863281 279.539062 278.863281 C 281.230469 278.863281 282.902344 277.789062 284.554688 275.644531 Z M 284.554688 270 " fill-opacity="1" fill-rule="nonzero"/><path fill="#005a2f" d="M 292.070312 264.464844 L 292.070312 263.921875 L 292.207031 263.71875 C 293.207031 263.324219 294.175781 262.871094 295.117188 262.355469 C 295.117188 258.71875 295.117188 256.609375 294.992188 256.007812 C 296.128906 255.59375 297.207031 255.058594 298.21875 254.398438 L 298.671875 254.816406 C 298.542969 255.6875 298.394531 258.234375 298.21875 262.457031 C 298.855469 262.457031 299.542969 262.457031 300.28125 262.457031 C 301.359375 262.480469 302.433594 262.441406 303.507812 262.335938 L 303.644531 262.480469 L 303.28125 264.238281 L 303.121094 264.421875 L 298.21875 264.421875 L 298.105469 272.921875 C 298.074219 274.210938 298.117188 275.496094 298.230469 276.777344 C 298.285156 277.339844 298.515625 277.816406 298.921875 278.207031 C 299.410156 278.59375 299.964844 278.761719 300.585938 278.714844 C 301.453125 278.71875 302.242188 278.472656 302.953125 277.980469 L 303.417969 278.738281 C 303.109375 278.964844 302.375 279.667969 301.21875 280.8125 C 300.585938 281.148438 299.910156 281.320312 299.195312 281.324219 C 296.332031 281.324219 294.902344 279.8125 294.902344 276.789062 C 294.902344 275.65625 294.902344 274.726562 294.96875 273.945312 C 294.96875 273.71875 294.96875 273.46875 294.96875 273.21875 L 294.96875 264.542969 L 294.1875 264.542969 C 293.625 264.542969 292.957031 264.542969 292.230469 264.636719 Z M 292.070312 264.464844 " fill-opacity="1" fill-rule="nonzero"/><path fill="#005a2f" d="M 311.105469 260.960938 L 311.46875 261.234375 C 311.320312 263.046875 311.253906 265.371094 311.253906 268.183594 L 311.253906 272.902344 C 311.253906 273.207031 311.253906 274.191406 311.332031 275.859375 C 311.410156 277.527344 311.433594 278.5 311.488281 278.773438 C 311.523438 279 311.609375 279.203125 311.75 279.386719 C 311.863281 279.511719 312.003906 279.589844 312.167969 279.625 C 312.339844 279.625 313.03125 279.714844 314.230469 279.804688 L 314.398438 279.964844 L 314.398438 280.835938 L 314.253906 281.03125 C 312.65625 280.925781 311.128906 280.871094 309.644531 280.871094 C 308.160156 280.871094 306.667969 280.925781 305.117188 281.03125 L 304.945312 280.835938 L 304.945312 279.964844 L 305.117188 279.804688 C 306.347656 279.714844 307.050781 279.65625 307.210938 279.613281 C 307.375 279.566406 307.515625 279.480469 307.628906 279.351562 C 307.773438 279.175781 307.855469 278.976562 307.878906 278.75 C 307.878906 278.480469 307.96875 277.617188 308.023438 276.050781 C 308.082031 274.488281 308.117188 273.367188 308.117188 272.59375 L 308.117188 268.480469 C 308.117188 267.921875 308.117188 267.164062 308.035156 266.210938 C 307.957031 265.257812 307.945312 264.660156 307.910156 264.429688 C 307.894531 264.222656 307.796875 264.058594 307.617188 263.945312 C 307.296875 263.808594 306.964844 263.757812 306.621094 263.785156 L 305.011719 263.785156 L 304.84375 263.625 L 304.84375 262.71875 L 305.003906 262.5625 C 307.105469 262.296875 309.140625 261.765625 311.105469 260.960938 Z M 309.472656 251.621094 C 310.085938 251.613281 310.597656 251.839844 311.003906 252.300781 C 311.4375 252.773438 311.648438 253.335938 311.636719 253.976562 C 311.648438 254.613281 311.4375 255.160156 311.003906 255.621094 C 310.601562 256.089844 310.089844 256.320312 309.472656 256.3125 C 308.867188 256.316406 308.363281 256.09375 307.957031 255.644531 C 307.523438 255.175781 307.3125 254.617188 307.324219 253.976562 C 307.3125 253.335938 307.523438 252.773438 307.957031 252.300781 C 308.351562 251.859375 308.847656 251.632812 309.441406 251.621094 Z M 309.472656 251.621094 " fill-opacity="1" fill-rule="nonzero"/><path fill="#005a2f" d="M 316.617188 271.300781 C 316.617188 269.640625 316.929688 268.042969 317.558594 266.507812 C 317.925781 265.652344 318.40625 264.871094 319.003906 264.160156 C 319.605469 263.449219 320.292969 262.84375 321.074219 262.335938 C 321.851562 261.832031 322.6875 261.453125 323.578125 261.199219 C 324.472656 260.941406 325.382812 260.820312 326.308594 260.835938 C 327.550781 260.792969 328.738281 261.015625 329.882812 261.5 C 331.023438 261.980469 332.011719 262.683594 332.84375 263.605469 C 333.703125 264.582031 334.351562 265.6875 334.785156 266.914062 C 335.222656 268.144531 335.417969 269.410156 335.367188 270.710938 C 335.429688 272.175781 335.207031 273.59375 334.707031 274.96875 C 334.203125 276.34375 333.457031 277.570312 332.46875 278.648438 C 331.585938 279.644531 330.535156 280.414062 329.316406 280.953125 C 328.101562 281.496094 326.828125 281.757812 325.496094 281.742188 C 323.722656 281.761719 322.136719 281.234375 320.730469 280.15625 C 319.351562 279.148438 318.3125 277.863281 317.613281 276.300781 C 316.929688 274.707031 316.597656 273.039062 316.617188 271.300781 Z M 320.230469 269.863281 C 320.207031 271.636719 320.433594 273.378906 320.910156 275.089844 C 321.300781 276.523438 322.027344 277.761719 323.09375 278.796875 C 324.035156 279.730469 325.167969 280.195312 326.492188 280.191406 C 327.234375 280.191406 327.933594 280.023438 328.59375 279.679688 C 329.25 279.335938 329.792969 278.859375 330.214844 278.25 C 331.339844 276.449219 331.828125 274.488281 331.675781 272.367188 C 331.78125 269.796875 331.253906 267.363281 330.09375 265.066406 C 329.882812 264.636719 329.621094 264.242188 329.300781 263.886719 C 328.976562 263.53125 328.613281 263.226562 328.207031 262.976562 C 327.800781 262.726562 327.367188 262.539062 326.90625 262.410156 C 326.441406 262.285156 325.972656 262.222656 325.496094 262.230469 C 324.726562 262.207031 323.996094 262.371094 323.308594 262.71875 C 322.621094 263.066406 322.058594 263.558594 321.625 264.195312 C 320.566406 265.9375 320.101562 267.828125 320.230469 269.863281 Z M 320.230469 269.863281 " fill-opacity="1" fill-rule="nonzero"/><path fill="#005a2f" d="M 343.179688 260.960938 L 343.554688 261.234375 C 343.476562 262.164062 343.429688 263.386719 343.394531 264.90625 C 344.414062 263.988281 345.386719 263.046875 346.292969 262.105469 C 346.515625 261.871094 346.769531 261.675781 347.054688 261.519531 C 347.414062 261.34375 347.792969 261.210938 348.183594 261.121094 C 348.734375 260.984375 349.292969 260.917969 349.859375 260.917969 C 350.847656 260.921875 351.789062 261.136719 352.679688 261.5625 C 353.484375 261.914062 354.171875 262.421875 354.742188 263.09375 C 355.21875 263.726562 355.539062 264.425781 355.703125 265.203125 C 355.902344 266.1875 355.992188 267.179688 355.976562 268.183594 L 355.976562 271.859375 C 355.976562 272.09375 355.976562 273.839844 356.066406 277.0625 C 355.980469 277.882812 356.109375 278.671875 356.460938 279.417969 C 356.710938 279.679688 357.492188 279.804688 358.839844 279.804688 L 358.988281 279.964844 L 358.988281 280.871094 L 358.839844 281.03125 C 357.21875 280.925781 356.121094 280.871094 355.554688 280.871094 C 355.214844 280.871094 354.289062 280.925781 352.769531 281.03125 L 352.53125 280.800781 C 352.699219 278.988281 352.78125 276.625 352.78125 273.71875 L 352.78125 270.984375 C 352.78125 269.339844 352.78125 268.160156 352.679688 267.4375 C 352.617188 266.722656 352.402344 266.0625 352.035156 265.453125 C 351.683594 264.863281 351.207031 264.40625 350.609375 264.078125 C 349.941406 263.71875 349.226562 263.539062 348.46875 263.546875 C 347.890625 263.53125 347.324219 263.605469 346.769531 263.761719 C 346.191406 263.96875 345.660156 264.269531 345.183594 264.660156 C 344.691406 265.023438 344.257812 265.445312 343.882812 265.929688 C 343.632812 266.269531 343.46875 266.648438 343.382812 267.0625 C 343.3125 267.785156 343.285156 268.511719 343.304688 269.238281 L 343.304688 272.867188 C 343.304688 273.171875 343.304688 274.160156 343.375 275.824219 C 343.371094 276.800781 343.425781 277.769531 343.542969 278.738281 C 343.5625 278.96875 343.648438 279.171875 343.792969 279.351562 C 343.90625 279.480469 344.050781 279.5625 344.222656 279.589844 C 344.378906 279.589844 345.070312 279.679688 346.273438 279.769531 L 346.441406 279.929688 L 346.441406 280.800781 L 346.292969 280.996094 C 344.710938 280.894531 343.167969 280.835938 341.699219 280.835938 C 340.226562 280.835938 338.695312 280.894531 337.113281 280.996094 L 336.941406 280.800781 L 336.941406 279.929688 L 337.113281 279.769531 C 338.347656 279.679688 339.046875 279.625 339.207031 279.578125 C 339.371094 279.53125 339.511719 279.445312 339.625 279.316406 C 339.761719 279.140625 339.847656 278.941406 339.875 278.714844 C 339.875 278.445312 339.964844 277.582031 340.023438 276.019531 C 340.078125 274.453125 340.113281 273.332031 340.113281 272.558594 L 340.113281 268.445312 C 340.113281 267.890625 340.113281 267.128906 340.03125 266.175781 C 339.953125 265.226562 339.941406 264.625 339.910156 264.398438 C 339.886719 264.191406 339.785156 264.027344 339.613281 263.910156 C 339.296875 263.773438 338.964844 263.722656 338.617188 263.75 L 337.019531 263.75 L 336.851562 263.59375 L 336.851562 262.6875 L 337 262.527344 C 339.128906 262.285156 341.191406 261.765625 343.179688 260.960938 Z M 343.179688 260.960938 " fill-opacity="1" fill-rule="nonzero"/><g clip-path="url(#9180fe2c8a)"><path fill="#005a2f" d="M 261.832031 158.109375 C 261.828125 159.351562 261.796875 160.59375 261.738281 161.832031 C 261.675781 163.074219 261.582031 164.3125 261.460938 165.546875 C 261.335938 166.785156 261.183594 168.015625 261.003906 169.246094 C 260.820312 170.472656 260.605469 171.695312 260.363281 172.914062 C 260.121094 174.132812 259.847656 175.34375 259.546875 176.546875 C 259.242188 177.753906 258.910156 178.949219 258.550781 180.136719 C 258.191406 181.324219 257.800781 182.503906 257.382812 183.671875 C 256.964844 184.84375 256.515625 186 256.039062 187.148438 C 255.566406 188.296875 255.0625 189.429688 254.53125 190.550781 C 254 191.675781 253.441406 192.785156 252.855469 193.878906 C 252.269531 194.972656 251.660156 196.054688 251.019531 197.117188 C 250.382812 198.183594 249.71875 199.230469 249.027344 200.265625 C 248.339844 201.296875 247.625 202.3125 246.882812 203.308594 C 246.144531 204.304688 245.382812 205.285156 244.59375 206.242188 C 243.804688 207.203125 242.996094 208.140625 242.160156 209.0625 C 241.328125 209.980469 240.472656 210.878906 239.59375 211.757812 C 238.71875 212.636719 237.820312 213.492188 236.898438 214.324219 C 235.980469 215.160156 235.039062 215.96875 234.082031 216.757812 C 233.121094 217.542969 232.144531 218.308594 231.148438 219.046875 C 230.148438 219.785156 229.136719 220.5 228.105469 221.191406 C 227.074219 221.878906 226.023438 222.542969 224.960938 223.179688 C 223.894531 223.820312 222.816406 224.429688 221.722656 225.015625 C 220.628906 225.597656 219.519531 226.15625 218.398438 226.6875 C 217.277344 227.21875 216.144531 227.71875 214.996094 228.195312 C 213.851562 228.667969 212.695312 229.117188 211.527344 229.535156 C 210.359375 229.953125 209.179688 230.339844 207.992188 230.699219 C 206.804688 231.058594 205.609375 231.390625 204.40625 231.691406 C 203.203125 231.992188 201.992188 232.265625 200.777344 232.507812 C 199.558594 232.746094 198.339844 232.960938 197.113281 233.140625 C 195.882812 233.324219 194.652344 233.472656 193.417969 233.59375 C 192.183594 233.714844 190.949219 233.808594 189.710938 233.867188 C 188.46875 233.925781 187.230469 233.957031 185.992188 233.957031 C 184.75 233.957031 183.511719 233.925781 182.273438 233.863281 C 181.03125 233.800781 179.796875 233.710938 178.5625 233.585938 C 177.328125 233.464844 176.097656 233.3125 174.871094 233.128906 C 173.644531 232.945312 172.421875 232.734375 171.207031 232.492188 C 169.988281 232.25 168.777344 231.976562 167.574219 231.671875 C 166.371094 231.371094 165.179688 231.039062 163.992188 230.679688 C 162.804688 230.316406 161.628906 229.925781 160.460938 229.507812 C 159.292969 229.089844 158.136719 228.640625 156.988281 228.167969 C 155.84375 227.691406 154.710938 227.1875 153.589844 226.65625 C 152.46875 226.125 151.359375 225.566406 150.265625 224.980469 C 149.171875 224.394531 148.09375 223.78125 147.03125 223.140625 C 145.96875 222.503906 144.921875 221.839844 143.890625 221.148438 C 142.859375 220.457031 141.84375 219.742188 140.847656 219 C 139.851562 218.261719 138.875 217.496094 137.917969 216.707031 C 136.957031 215.921875 136.019531 215.109375 135.101562 214.273438 C 134.183594 213.441406 133.285156 212.582031 132.40625 211.703125 C 131.53125 210.828125 130.675781 209.925781 129.84375 209.007812 C 129.011719 208.085938 128.203125 207.144531 127.414062 206.183594 C 126.628906 205.222656 125.867188 204.246094 125.128906 203.246094 C 124.390625 202.25 123.675781 201.234375 122.988281 200.203125 C 122.296875 199.167969 121.632812 198.117188 120.996094 197.054688 C 120.359375 195.988281 119.75 194.90625 119.164062 193.8125 C 118.582031 192.714844 118.023438 191.605469 117.492188 190.484375 C 116.964844 189.359375 116.460938 188.226562 115.988281 187.078125 C 115.511719 185.929688 115.066406 184.773438 114.648438 183.601562 C 114.230469 182.433594 113.84375 181.253906 113.484375 180.066406 C 113.125 178.875 112.792969 177.679688 112.492188 176.476562 C 112.191406 175.269531 111.921875 174.058594 111.679688 172.839844 C 111.4375 171.621094 111.226562 170.398438 111.042969 169.171875 C 110.863281 167.941406 110.710938 166.710938 110.589844 165.472656 C 110.46875 164.238281 110.375 163 110.316406 161.757812 C 110.253906 160.515625 110.226562 159.277344 110.226562 158.035156 C 110.226562 156.792969 110.257812 155.550781 110.316406 154.308594 C 110.378906 153.070312 110.472656 151.832031 110.59375 150.59375 C 110.714844 149.359375 110.867188 148.128906 111.050781 146.898438 C 111.230469 145.671875 111.445312 144.445312 111.6875 143.230469 C 111.929688 142.011719 112.199219 140.800781 112.5 139.59375 C 112.804688 138.390625 113.132812 137.191406 113.496094 136.003906 C 113.855469 134.816406 114.242188 133.636719 114.660156 132.46875 C 115.078125 131.296875 115.527344 130.140625 116 128.992188 C 116.476562 127.84375 116.980469 126.710938 117.507812 125.589844 C 118.039062 124.464844 118.597656 123.355469 119.183594 122.261719 C 119.765625 121.164062 120.378906 120.085938 121.015625 119.019531 C 121.65625 117.953125 122.316406 116.90625 123.007812 115.875 C 123.695312 114.839844 124.410156 113.824219 125.148438 112.828125 C 125.890625 111.832031 126.652344 110.851562 127.4375 109.890625 C 128.226562 108.933594 129.035156 107.992188 129.867188 107.070312 C 130.703125 106.152344 131.558594 105.253906 132.433594 104.375 C 133.3125 103.496094 134.210938 102.640625 135.128906 101.804688 C 136.046875 100.972656 136.988281 100.160156 137.945312 99.375 C 138.90625 98.585938 139.882812 97.820312 140.878906 97.082031 C 141.875 96.34375 142.890625 95.628906 143.921875 94.9375 C 144.953125 94.246094 146 93.582031 147.0625 92.945312 C 148.128906 92.308594 149.207031 91.695312 150.300781 91.109375 C 151.394531 90.523438 152.503906 89.964844 153.625 89.433594 C 154.746094 88.902344 155.878906 88.402344 157.023438 87.925781 C 158.171875 87.449219 159.328125 87.003906 160.496094 86.585938 C 161.664062 86.167969 162.839844 85.777344 164.027344 85.417969 C 165.214844 85.054688 166.410156 84.726562 167.613281 84.421875 C 168.816406 84.121094 170.027344 83.851562 171.242188 83.609375 C 172.457031 83.367188 173.679688 83.152344 174.90625 82.972656 C 176.132812 82.789062 177.363281 82.636719 178.597656 82.515625 C 179.832031 82.394531 181.070312 82.300781 182.308594 82.242188 C 183.546875 82.179688 184.789062 82.148438 186.027344 82.148438 C 187.269531 82.148438 188.511719 82.179688 189.75 82.242188 C 190.988281 82.300781 192.226562 82.394531 193.460938 82.515625 C 194.695312 82.636719 195.929688 82.789062 197.15625 82.96875 C 198.382812 83.152344 199.605469 83.363281 200.824219 83.609375 C 202.042969 83.851562 203.253906 84.121094 204.457031 84.425781 C 205.660156 84.726562 206.855469 85.058594 208.042969 85.417969 C 209.230469 85.78125 210.410156 86.167969 211.578125 86.589844 C 212.746094 87.007812 213.90625 87.453125 215.050781 87.929688 C 216.199219 88.40625 217.332031 88.910156 218.453125 89.441406 C 219.574219 89.972656 220.683594 90.53125 221.777344 91.117188 C 222.875 91.703125 223.953125 92.316406 225.015625 92.957031 C 226.082031 93.59375 227.128906 94.257812 228.160156 94.949219 C 229.195312 95.640625 230.207031 96.355469 231.203125 97.097656 C 232.203125 97.835938 233.179688 98.601562 234.140625 99.390625 C 235.097656 100.179688 236.039062 100.992188 236.957031 101.828125 C 237.875 102.660156 238.773438 103.519531 239.652344 104.398438 C 240.527344 105.277344 241.382812 106.175781 242.21875 107.097656 C 243.050781 108.019531 243.859375 108.960938 244.648438 109.921875 C 245.433594 110.882812 246.199219 111.863281 246.9375 112.863281 C 247.675781 113.859375 248.390625 114.875 249.078125 115.910156 C 249.769531 116.945312 250.429688 117.992188 251.070312 119.058594 C 251.707031 120.125 252.316406 121.207031 252.902344 122.304688 C 253.484375 123.402344 254.042969 124.511719 254.574219 125.636719 C 255.101562 126.757812 255.605469 127.894531 256.078125 129.042969 C 256.554688 130.191406 257 131.351562 257.417969 132.523438 C 257.835938 133.691406 258.222656 134.871094 258.582031 136.0625 C 258.941406 137.25 259.273438 138.449219 259.574219 139.65625 C 259.875 140.859375 260.144531 142.074219 260.386719 143.292969 C 260.625 144.511719 260.835938 145.738281 261.019531 146.964844 C 261.199219 148.195312 261.351562 149.429688 261.472656 150.664062 C 261.59375 151.902344 261.683594 153.140625 261.742188 154.382812 C 261.800781 155.625 261.832031 156.867188 261.832031 158.109375 Z M 261.832031 158.109375 " fill-opacity="1" fill-rule="nonzero"/></g><path fill="#ffffff" d="M 188.9375 158.109375 C 188.941406 158.582031 188.855469 159.039062 188.679688 159.476562 C 188.5 159.914062 188.246094 160.300781 187.917969 160.636719 C 187.585938 160.972656 187.199219 161.234375 186.765625 161.414062 C 186.332031 161.597656 185.878906 161.691406 185.40625 161.691406 C 184.933594 161.695312 184.480469 161.605469 184.042969 161.425781 C 183.605469 161.246094 183.222656 160.988281 182.886719 160.652344 C 182.554688 160.320312 182.296875 159.933594 182.117188 159.496094 C 181.9375 159.058594 181.847656 158.605469 181.851562 158.132812 C 181.851562 157.660156 181.945312 157.207031 182.125 156.769531 C 182.308594 156.335938 182.570312 155.949219 182.90625 155.617188 C 183.238281 155.285156 183.625 155.03125 184.0625 154.855469 C 184.5 154.675781 184.957031 154.589844 185.429688 154.59375 C 185.894531 154.597656 186.339844 154.6875 186.769531 154.867188 C 187.195312 155.046875 187.574219 155.300781 187.902344 155.632812 C 188.230469 155.960938 188.484375 156.339844 188.664062 156.769531 C 188.84375 157.199219 188.933594 157.644531 188.9375 158.109375 Z M 188.9375 158.109375 " fill-opacity="1" fill-rule="nonzero"/><path fill="#ffffff" d="M 183.425781 151.308594 C 183.425781 151.308594 190.917969 149.460938 192.628906 156.171875 C 194.269531 162.609375 188.800781 165.761719 185.542969 165.898438 C 182.28125 166.035156 174.355469 163.734375 175.351562 154.5625 C 176.347656 145.390625 183.898438 144.210938 185.292969 144.015625 C 186.082031 143.902344 186.875 143.859375 187.675781 143.882812 C 188.472656 143.90625 189.261719 143.996094 190.042969 144.15625 C 190.828125 144.316406 191.589844 144.542969 192.332031 144.832031 C 193.074219 145.125 193.789062 145.476562 194.472656 145.890625 C 195.15625 146.304688 195.796875 146.773438 196.398438 147.296875 C 197 147.824219 197.554688 148.394531 198.058594 149.015625 C 198.5625 149.636719 199.007812 150.292969 199.398438 150.992188 C 199.789062 151.6875 200.117188 152.414062 200.382812 153.167969 C 204.5625 163.507812 196.21875 172.859375 187.929688 174.050781 C 179.640625 175.242188 167.550781 171.410156 166.078125 157.042969 C 164.59375 143.371094 176.371094 136.035156 182.710938 135.039062 C 192.617188 133.484375 202.898438 136.988281 208.039062 146.375 C 213.371094 156.101562 213.382812 171.410156 198.425781 180.953125 C 183.988281 190.160156 163.328125 180.671875 158.265625 165.355469 C 157.71875 163.703125 157.300781 162.015625 157.015625 160.296875 C 156.730469 158.578125 156.582031 156.847656 156.566406 155.105469 C 156.554688 153.363281 156.675781 151.632812 156.933594 149.910156 C 157.191406 148.183594 157.582031 146.492188 158.101562 144.832031 C 158.625 143.167969 159.273438 141.558594 160.046875 140 C 160.820312 138.4375 161.710938 136.949219 162.71875 135.527344 C 163.726562 134.109375 164.839844 132.773438 166.054688 131.53125 C 167.273438 130.285156 168.578125 129.140625 169.972656 128.101562 C 179.460938 121.445312 196.015625 117.613281 211.867188 129.550781 C 228.847656 142.304688 227.046875 163.425781 219.042969 178.6875 C 210.585938 194.808594 184.648438 206.328125 160.007812 191.160156 C 135.371094 175.988281 141.894531 144.015625 145.289062 136.25 C 148.6875 128.484375 164.765625 100.855469 197.9375 107.214844 C 231.113281 113.578125 244.472656 144.503906 239.105469 167.734375 C 233.738281 190.964844 214.503906 218.367188 174.75 212.527344 C 132.859375 206.351562 124.414062 163.550781 129.257812 138.335938 C 129.257812 138.335938 128.863281 136.34375 127.671875 138.925781 C 126.484375 141.511719 112.378906 180.875 144.949219 208.355469 C 177.523438 235.839844 227.851562 222.222656 243.882812 183.890625 C 258.683594 148.484375 243.285156 109.066406 202.378906 99.085938 C 185.996094 95.109375 170.277344 99.824219 158.796875 107.308594 C 143.796875 117.046875 137.875 133.167969 136.605469 138.507812 C 134.421875 147.453125 127.867188 183.050781 158.664062 199.730469 C 189.457031 216.40625 219.019531 196.839844 226.59375 180.921875 C 230.695312 172.269531 234.65625 159.242188 230.558594 143.65625 C 227.910156 133.574219 218.929688 122.816406 207.914062 118.292969 C 176.210938 105.242188 157.675781 129.121094 152.910156 139.664062 C 148.144531 150.207031 145.324219 176.542969 169.203125 186.804688 C 194.746094 197.777344 217.820312 180.636719 217.390625 157.542969 C 217.390625 157.542969 216.914062 133.371094 193.839844 129.414062 C 172.816406 125.796875 163.757812 141.238281 162.207031 148.191406 C 160.519531 155.617188 160.519531 172.691406 178.917969 178.390625 C 194.882812 183.359375 204.585938 169.324219 205.71875 164.027344 C 206.851562 158.734375 206.285156 143.8125 191.746094 140.402344 C 177.207031 136.988281 172.125 148.335938 171.546875 153.824219 C 170.96875 159.3125 173.257812 171.023438 187.78125 169.515625 C 187.78125 169.515625 196.785156 167.40625 196.785156 158.859375 C 196.785156 150.308594 187.09375 145.640625 183.425781 151.308594 Z M 183.425781 151.308594 " fill-opacity="1" fill-rule="nonzero"/></svg>